<svg width="100%" height="100%"
    xmlns = "http://www.w3.org/2000/svg"
    xmlns:xlink="http://www.w3.org/1999/xlink">
    <title>RendonE3d</title>
    <desc>Paulo Rendon's logo</desc>

    <defs>
    <g id = "rendonE3dlogo" style="stroke-width: 1">
        <!-- Boarder -->
        <rect x="0" y="0" height="150" width="150"
        style="fill:white; stroke:black"/>

        <!-- Hat -->
        <path d="M 35,40 a1,1 0 0,1 80,0 L 35,40"/>

        <!-- Arms -->
        <polygon points="30 50, 30 70, 60 60"/>
        <polygon points="120 50, 120 70, 90 60"/>
        <ellipse cx="75" cy="60" rx="30" ry="10"/>
    
        <!-- Head -->
        <path d= "M55,40 a1,1 0 0,0 40,0"
        style="fill:gray"/>
        <circle cx="53" cy="44" r="2"
        style="fill:none"/>
        <circle cx="75" cy="40" r="20"
        style="fill:none"/>
        <polyline points="73 40, 71 48, 79 48, 77 40"
        style="fill:none"/>
        <g id = "rendonE3beyes">
            <polyline points="57 42, 68 42, 69 43, 70 44, 70 45, 69 45, 68 46, 57 42"/>
        </g>
        <use xlink:href="#rendonE3beyes" transform="translate(150 0) scale(-1 1)"/>
        <ellipse cx="75" cy="53" rx="5" ry="3"/>

        <!-- Body -->
        <polygon points="60 65, 43 90, 75 90"/>
        <polygon points="90 65, 107 90, 75 90"/>

        <!-- Snake -->
        <path d= "M150 130 135 130 Q 75 135 50 90 C 60 50 100 90 110 40 
        L 95 40 C 85 75 65 45 46 70 Q 29 90 50 115 Q 75 150 135 145 L 150 145 Z"
        style="fill:#cc6666"/>
        <path d="M109 45 C110 35 85 63 95 65 Q 108 49 109 45 Z"
        style="fill:#602020"/>
        <path d="M39 90 Q70 55 45 95 Q 43 97 39 90 Z"
        style="fill:#602020"/>
        <path d="M47 110 Q 75 110 70 130 Z"
        style="fill:#602020"/>
        <path d="M90 142 100 133 C 90 120 125 150 130 140 Q 135 135 140 143 Q 140 146 90 142 Z"
        style="fill:#602020"/>
        
        <!-- Bottom Portion -->
        <path d= "M50 90 50 115 62 115 A13 20 0 0,1 88 115 L 100 115 100 90 Z"/>
        <path d = "M50 115 50 125 35 125 a1,0.6 0 0,0 80,0 L 100 125 100 115 Z"/>

        <!-- Snake -->
        <path d="M110 20 A5,8 0 0,0 93 13 C 90 28 80 5 70 15 Q 65 12 65 20 Q 52 30 69 25 
        Q 79 27 75 22 C 75 10 100 45 102 10 Z"
        style="fill:#cc6666"/>
        <polyline points="60 25 56 26 57 28 56 31 60 27"
        style="fill: #ffccff"/>
        <ellipse cx="69" cy="21" rx="5" ry="1"
        style="fill:#e6b3b3" transform = "rotate(-25, 69, 21)"/>
        <path d="M102 10 Q 97 10 95 15 Q 100 18 100 15 Z"
        style="fill:#602020"/>
    </g>
    </defs>

    <use xlink:href="#rendonE3dlogo" x="0" y="0" style="fill: #ffa31a; stroke:black"
    transform="scale(0.5)"/>
</svg>